<svg width="1080" height="1080" viewBox="0 0 1080 1080" fill="none" xmlns="http://www.w3.org/2000/svg">
<mask id="mask0_42_2" style="mask-type:alpha" maskUnits="userSpaceOnUse" x="0" y="0" width="1080" height="1080">
<circle cx="540" cy="540" r="540" fill="#FF00FF"/>
</mask>
<g mask="url(#mask0_42_2)">
<circle cx="540" cy="540" r="540" fill="#FF00FF"/>
<path d="M66.785 455.423C90.7062 455.423 106.654 444.792 115.513 425.3C119.057 416.441 118.171 406.695 116.399 400.493C116.399 396.949 112.856 394.291 108.426 394.291C72.1008 396.949 29.5742 388.089 29.5742 368.598C29.5742 316.326 166.014 279.115 299.796 268.483C262.585 318.098 211.198 396.063 166.014 480.231C135.005 483.774 109.312 489.09 93.3642 494.406C57.9253 506.81 49.9515 595.407 68.5569 605.153C80.9606 594.521 97.794 584.775 118.171 576.802C87.1624 648.565 65.0131 717.671 65.0131 772.601C65.0131 826.646 93.3642 857.655 122.601 857.655C143.865 857.655 158.04 841.707 158.04 827.532C158.04 824.874 156.268 823.102 154.496 823.102C147.408 822.216 140.321 802.724 140.321 783.233C140.321 728.303 172.216 637.934 219.172 549.336C271.445 542.249 325.489 544.021 365.358 559.082C371.559 561.74 374.217 558.196 375.989 553.766C379.533 544.021 374.217 507.696 329.033 493.52C306.883 486.432 283.848 482.003 260.813 480.231C323.717 381.002 395.481 295.062 414.972 266.711C492.052 271.141 551.412 287.975 556.728 319.87C557.614 326.957 566.473 325.185 569.131 324.299C589.509 315.44 612.544 258.737 579.763 228.614C496.481 151.535 -19.1543 197.605 -19.1543 371.256C-19.1543 418.213 18.9425 455.423 66.785 455.423Z" fill="white"/>
<path d="M547.389 424.414C447.275 424.414 332.984 545.792 332.984 657.425C332.984 706.153 375.511 755.768 406.52 755.768C434.871 755.768 470.31 715.013 504.863 663.627V673.372C504.863 710.583 549.161 755.768 571.311 755.768C612.951 755.768 693.575 662.741 718.382 629.074C725.47 618.442 737.873 604.267 737.873 590.977C737.873 582.117 721.926 568.828 715.724 577.687C709.522 585.661 701.549 594.521 692.689 604.267C657.25 642.363 603.206 686.662 581.942 691.092C578.398 691.978 575.741 688.434 576.627 684.89C582.828 650.337 602.32 609.582 622.697 573.258C652.82 521.871 698.005 478.459 698.005 468.713C698.005 447.45 673.197 429.73 627.127 429.73C621.811 429.73 612.065 438.59 599.662 452.765C588.144 439.476 568.653 424.414 547.389 424.414ZM418.038 682.232C411.836 682.232 410.064 676.03 410.064 669.829C410.064 602.495 502.205 470.485 569.539 470.485C574.855 470.485 579.284 471.371 583.714 474.029C573.969 487.318 564.223 503.266 554.477 520.985C507.521 590.091 441.073 682.232 418.038 682.232Z" fill="white"/>
<path d="M812.776 417.327C788.855 417.327 690.512 579.459 690.512 675.144C690.512 716.785 731.267 750.452 741.012 750.452C748.986 750.452 757.846 746.908 757.846 739.82C760.504 702.61 865.935 596.293 939.47 531.617C913.777 578.573 889.856 634.39 889.856 673.372C889.856 710.583 933.268 755.768 955.418 755.768C996.172 755.768 1077.68 662.741 1101.6 629.074C1109.58 618.442 1121.98 604.267 1121.98 590.977C1121.98 582.117 1106.03 568.828 1099.83 577.687C1093.63 585.661 1085.66 594.521 1076.8 604.267C1041.36 642.363 987.313 686.662 966.049 691.092C962.505 691.978 959.848 688.434 960.733 684.89C966.935 650.337 984.655 614.012 1005.92 577.687C1035.16 525.415 1080.34 482.003 1080.34 472.257C1080.34 450.993 1056.42 430.616 1009.46 430.616C1005.92 430.616 997.944 434.16 989.085 441.248C934.154 473.143 816.32 584.775 760.504 654.767C772.907 620.214 798.601 575.916 817.206 547.564C853.531 491.748 882.768 466.055 882.768 456.309C882.768 435.046 858.847 417.327 812.776 417.327Z" fill="white"/>
</g>
</svg>
