<svg width="1080" height="1080" viewBox="0 0 1080 1080" fill="none" xmlns="http://www.w3.org/2000/svg">
<mask id="mask0_40:102" style="mask-type:alpha" maskUnits="userSpaceOnUse" x="0" y="0" width="1080" height="1080">
<rect width="1080" height="1080" fill="#FF00FF"/>
</mask>
<g mask="url(#mask0_40:102)">
<rect width="1080" height="1080" fill="#FF00FF"/>
<path d="M66.7845 455.423C90.7058 455.423 106.653 444.792 115.513 425.3C119.057 416.441 118.171 406.695 116.399 400.493C116.399 396.949 112.855 394.291 108.425 394.291C72.1003 396.949 29.5737 388.089 29.5737 368.598C29.5737 316.326 166.013 279.115 299.795 268.483C262.584 318.098 211.198 396.063 166.013 480.231C135.004 483.774 109.311 489.09 93.3637 494.406C57.9248 506.81 49.951 595.407 68.5565 605.153C80.9601 594.521 97.7935 584.775 118.171 576.802C87.1619 648.565 65.0126 717.671 65.0126 772.601C65.0126 826.646 93.3637 857.655 122.601 857.655C143.864 857.655 158.04 841.707 158.04 827.532C158.04 824.874 156.268 823.102 154.496 823.102C147.408 822.216 140.32 802.724 140.32 783.233C140.32 728.303 172.215 637.934 219.172 549.336C271.444 542.249 325.488 544.021 365.357 559.082C371.559 561.74 374.217 558.196 375.989 553.766C379.533 544.021 374.217 507.696 329.032 493.52C306.883 486.432 283.848 482.003 260.812 480.231C323.716 381.002 395.48 295.062 414.972 266.711C492.051 271.141 551.411 287.975 556.727 319.87C557.613 326.957 566.473 325.185 569.131 324.299C589.508 315.44 612.543 258.737 579.762 228.614C496.481 151.535 -19.1548 197.605 -19.1548 371.256C-19.1548 418.213 18.942 455.423 66.7845 455.423Z" fill="white"/>
<path d="M547.389 424.414C447.274 424.414 332.984 545.792 332.984 657.425C332.984 706.153 375.51 755.768 406.519 755.768C434.87 755.768 470.309 715.013 504.862 663.627V673.372C504.862 710.583 549.161 755.768 571.31 755.768C612.951 755.768 693.574 662.741 718.382 629.074C725.469 618.442 737.873 604.267 737.873 590.977C737.873 582.117 721.925 568.828 715.724 577.687C709.522 585.661 701.548 594.521 692.688 604.267C657.25 642.363 603.205 686.662 581.942 691.092C578.398 691.978 575.74 688.434 576.626 684.89C582.828 650.337 602.319 609.582 622.697 573.258C652.82 521.871 698.004 478.459 698.004 468.713C698.004 447.45 673.197 429.73 627.126 429.73C621.811 429.73 612.065 438.59 599.661 452.765C588.144 439.476 568.652 424.414 547.389 424.414ZM418.037 682.232C411.835 682.232 410.063 676.03 410.063 669.829C410.063 602.495 502.204 470.485 569.538 470.485C574.854 470.485 579.284 471.371 583.714 474.029C573.968 487.318 564.222 503.266 554.477 520.985C507.52 590.091 441.072 682.232 418.037 682.232Z" fill="white"/>
<path d="M812.776 417.327C788.854 417.327 690.512 579.459 690.512 675.144C690.512 716.785 731.266 750.452 741.012 750.452C748.986 750.452 757.845 746.908 757.845 739.82C760.503 702.61 865.934 596.293 939.47 531.617C913.777 578.573 889.855 634.39 889.855 673.372C889.855 710.583 933.268 755.768 955.417 755.768C996.172 755.768 1077.68 662.741 1101.6 629.074C1109.58 618.442 1121.98 604.267 1121.98 590.977C1121.98 582.117 1106.03 568.828 1099.83 577.687C1093.63 585.661 1085.66 594.521 1076.8 604.267C1041.36 642.363 987.312 686.662 966.049 691.092C962.505 691.978 959.847 688.434 960.733 684.89C966.935 650.337 984.654 614.012 1005.92 577.687C1035.15 525.415 1080.34 482.002 1080.34 472.257C1080.34 450.993 1056.42 430.616 1009.46 430.616C1005.92 430.616 997.944 434.16 989.084 441.248C934.154 473.143 816.32 584.775 760.503 654.767C772.907 620.214 798.6 575.916 817.206 547.564C853.53 491.748 882.768 466.055 882.768 456.309C882.768 435.046 858.846 417.327 812.776 417.327Z" fill="white"/>
</g>
</svg>
